<?xml version="1.0" encoding="utf-8"?>
<!-- Generator: Adobe Illustrator 23.1.0, SVG Export Plug-In . SVG Version: 6.00 Build 0)  -->
<svg version="1.1" id="Layer_1" xmlns="http://www.w3.org/2000/svg" xmlns:xlink="http://www.w3.org/1999/xlink" x="0px" y="0px"
	 viewBox="0 0 607.2 432.1" style="enable-background:new 0 0 607.2 432.1;" xml:space="preserve">
<style type="text/css">
	.st0{fill:#3F3D56;}
	.st1{fill:#CCCCCC;}
	.st2{fill:#FFFFFF;}
	.st3{fill:#E2A01D;}
	.st4{fill:#E6E6E6;}
</style>
<path class="st0" d="M184.4,306.4c-5.6,0-10.2,4.6-10.2,10.2v23.9c0,5.6,4.6,10.2,10.2,10.2h12.9c5.6,0,10.2-4.6,10.2-10.2v-23.9
	c0-5.6-4.6-10.2-10.2-10.2H184.4z"/>
<path class="st0" d="M423.8,351.5h-12.9c-6.1,0-11-4.9-11-11v-23.9c0-6.1,4.9-11,11-11h12.9c6.1,0,11,4.9,11,11v23.9
	C434.8,346.6,429.8,351.5,423.8,351.5z"/>
<path class="st1" d="M415.2,332.4h-223c-10.1,0-18.4-6-18.4-13.3v-42.9l11.1-11.7h239.8l8.9,11.7V319
	C433.6,326.4,425.3,332.4,415.2,332.4z"/>
<path class="st1" d="M423.6,286H186.1l-2.4-37l1.5-3.8l8.9-22H414l12.1,24.9L423.6,286z"/>
<polygon class="st2" points="425.6,248.2 423.9,276 371.6,276 371.6,255.4 424.2,245.1 "/>
<polygon class="st2" points="237.3,255.4 237.3,276 185.9,276 184.1,249 185.6,245.3 "/>
<path class="st1" d="M412.6,229.5H195.5l23.2-77.2c1.9-6.5,7.9-11.1,14.8-11.1l143.8-1.4c7.2-0.1,13.4,4.7,15.2,11.7L412.6,229.5z"
	/>
<path class="st2" d="M395.9,222.2l-183.8-2.2c-0.8,0-1.5-0.7-1.5-1.5c0-0.1,0-0.3,0.1-0.4l17.6-55c0.2-0.6,0.8-1,1.4-1h147.8
	c0.6,0,1.2,0.4,1.4,1l18.3,57.1c0.3,0.8-0.2,1.6-1,1.9C396.2,222.2,396.1,222.2,395.9,222.2z"/>
<path class="st3" d="M328.8,149.3h-49.5c-0.4,0-0.8-0.4-1-1.1c-0.2-0.7-0.2-1.4,0.1-2.1l4.1-10.3c0.2-0.5,0.5-0.8,0.9-0.8h41.4
	c0.4,0,0.7,0.3,0.9,0.8l4.1,10.3c0.2,0.7,0.3,1.4,0.1,2.1C329.6,148.9,329.3,149.3,328.8,149.3z"/>
<path class="st1" d="M195.6,228h-32.6v-7.2c0-4.8,3.9-8.7,8.7-8.7h23.8V228z"/>
<path class="st1" d="M445.1,228h-32.6v-15.9h23.8c4.8,0,8.7,3.9,8.7,8.7V228z"/>
<rect x="-4.6" y="368.1" transform="matrix(0.9411 -0.3381 0.3381 0.9411 -120.0806 48.7679)" class="st0" width="169.2" height="2"/>
<rect x="526.2" y="284.5" transform="matrix(0.338 -0.9411 0.9411 0.338 1.6234 740.5247)" class="st0" width="2" height="169.2"/>
<path class="st4" d="M312.9,381.1h-9.5v-12.3h9.5V381.1z M312.9,356.4h-9.5v-12.3h9.5V356.4z"/>
<path class="st4" d="M312.9,432.1h-9.5v-12.3h9.5V432.1z M312.9,407.4h-9.5v-12.3h9.5V407.4z"/>
<circle class="st3" cx="303.8" cy="51.8" r="47.3"/>
<polygon class="st2" points="299.3,71.8 285.1,53.6 293.4,47.2 300.1,55.8 322.7,31.9 330.3,39.1 "/>
</svg>
